# xmcd CD database file
#
# Track frame offsets:
#	150
#	30327
#	55956
#	76285
#	82616
#	111032
#	117099
#	126297
#	151615
#	171903
#	188272
#	206659
#	232412
#	234662
#	256534
#	274567
#
# Disc length: 4010 seconds
#
# Revision: 1
# Processed by: cddbd v1.5.1PL0 Copyright (c) Steve Scherf et al.
# Submitted via: CDex 1.51
#
DISCID=bc0fa810
DTITLE=Kid 606 - Who Still Kill Sound?
DYEAR=2004
DGENRE=Electronic
TTITLE0=Yr Inside the Smallest Rave On Earth
TTITLE1=Slammin' Ragga Bootleg Track
TTITLE2=Phat With a Phd
TTITLE3=Cex Remix I Forgot to Finish
TTITLE4=Live Acid Jam
TTITLE5=All I wanted for Christmas Was My Braces Off
TTITLE6=Ladies (feat. Sue Cie)
TTITLE7=Another Slammin' Ragga Bootleg Track
TTITLE8=Pregnant Cheerleader Theme Song
TTITLE9=Roll With It (feat. Sue Cie)
TTITLE10=rudestyleindiejunglistmassive
TTITLE11=I Wanna Rock (You Just Left The Smallest Rave On Earth)
TTITLE12=Dramatic Pause
TTITLE13=Robitussin Motherfucker (DJ Screw RIP)
TTITLE14=Ass Scratch Beaver
TTITLE15=Wickid Megamix
EXTD=YEAR: 2004
EXTT0=
EXTT1=
EXTT2=
EXTT3=
EXTT4=
EXTT5=
EXTT6=
EXTT7=
EXTT8=
EXTT9=
EXTT10=
EXTT11=
EXTT12=
EXTT13=
EXTT14=
EXTT15=
PLAYORDER=
